<?xml version="1.0" encoding="UTF-8"?>
<svg xmlns="http://www.w3.org/2000/svg" version="1.1" viewBox="0 0 110 99.5">
 <g>
    <g id="Layer_1">
      <path class="cls-1" d="M72.2,75.1c-1.1-1.3-1.7-3.5-1-6.3.4-1.6.8-2.9,1.2-3.8.5-1.6.8-2.3.6-2.9-.2-.7-1.2-1.8-2.9-3.5l-10.9-10.9c-.9-.1-1.8-.2-2.7-.2-5.3,0-10.3,2.3-13.7,6.2-.2,1.8-.2,4.2-.2,7.6,0,.9,0,1.9,0,3s0,.3,0,.4c-.6,2.4-2,4.3-3.7,5.6.4,1.5.9,2.9,1.6,4.2,0,0,0,0,0,0,3.1,5.7,9.2,9.5,16,9.5s12.4-3.4,15.7-8.9h0ZM55,76.7v-1.7c-2.4-.6-4.2-2.8-4.2-5.3s.7-1.6,1.6-1.6,1.6.7,1.6,1.6c0,1.3,1.2,2.4,2.7,2.4s2.7-1.1,2.7-2.4-1.2-2.4-2.7-2.4c-3.2,0-5.8-2.5-5.8-5.5s1.8-4.6,4.2-5.3v-1.7c0-.9.7-1.6,1.6-1.6s1.6.7,1.6,1.6v1.7c2.4.6,4.2,2.8,4.2,5.3s-.7,1.6-1.6,1.6-1.6-.7-1.6-1.6c0-1.3-1.2-2.4-2.7-2.4s-2.7,1.1-2.7,2.4,1.2,2.4,2.7,2.4c3.2,0,5.8,2.5,5.8,5.5s-1.8,4.6-4.2,5.3v1.7c0,.9-.7,1.6-1.6,1.6s-1.6-.7-1.6-1.6ZM45.5,84h-18.9v-7.2h11.7c1.8,3,4.3,5.4,7.2,7.2h0ZM69.8,24.6l11.7,11.7c1,1,1.2,2.5.5,3.7l-2.1,3.6-7-7c-.6-.6-1.6-.6-2.2,0-.6.6-.6,1.6,0,2.2l8.3,8.3,5.3,9.2c.5.8.5,1.8,0,2.6l-8.1,14c-.3.3-.9.6-1.4.4-.7-.4-1.2-1.8-.6-3.7.4-1.5.8-2.7,1.1-3.7.7-2,1.1-3.2.6-4.8-.4-1.4-1.5-2.6-3.7-4.8l-18.6-18.6c-.6-.6-1.6-.6-2.2,0-2,2-3.7,3.6-5,4.8-6.9,6.5-7,6.9-7,18.7,0,.9,0,1.8,0,2.8-.9,3.2-3.3,4.6-5.3,4.6s-4-1.6-4.8-4.4c-.2-2.4-.4-4.5-.5-6.3-1.1-13.1-1.2-14.1,4.9-29.9,0-.1,0-.2,0-.4l.6-5.3h33.9s1.1,1.9,1.1,1.9c0,.1.2.2.2.3h0ZM27.9,17.3v-7.4c0-1.1.9-1.9,1.9-1.9h40.6c1.1,0,1.9.9,1.9,1.9v7.4c0,1.1-.9,1.9-1.9,1.9h-37.2s0,0,0,0h-3.4c-1.1,0-1.9-.9-1.9-1.9h0ZM84.7,84h-17.1c2.9-1.8,5.4-4.2,7.2-7.2h9.9v7.2ZM100.6,73.9v12.9c0,2.7-2.2,4.9-4.9,4.9H15.5c-2.7,0-4.9-2.2-4.9-4.9v-12.9c0-2.7,2.2-4.9,4.9-4.9h13c1.7,2,3.9,2.7,5.8,2.7s1.2,0,1.7-.2c.2.7.4,1.4.7,2.1h-11.7c-.9,0-1.6.7-1.6,1.6v10.3c0,.9.7,1.6,1.6,1.6h61.3c.9,0,1.6-.7,1.6-1.6v-10.3c0-.9-.7-1.6-1.6-1.6h-6.8l2.7-4.6h13.6c2.7,0,4.9,2.2,4.9,4.9h0Z"/>
    </g>
  </g>
</svg>