<?xml version="1.0" encoding="UTF-8"?>
<svg xmlns="http://www.w3.org/2000/svg" version="1.1" viewBox="0 0 100 98.8">
  <defs>

  </defs>
 
  <g>
    <g id="Layer_1">
      <path class="cls-1" d="M27.6,47c-2.8,0-5-2.2-5-5s2.3-5,5-5,5,2.2,5,5-2.3,5-5,5M47.9,79.2v-1c0-1.3-.7-2.5-1.9-3-2.1-.9-3.8-2.9-4.1-5.5-.1-1,0-2,.4-2.9l6.6-19.7c2.5-9,9.4-15.8,17.9-18.3,3.4-1,5.1-4.9,3.5-8.1-4.5-9.1-13.5-15.6-24.1-16.6-14.6-1.3-29.2,7.9-32.9,22,0,.1-8.1,27.9-8.1,27.9-.2.7-.1,1.5.3,2.2.5.6,1.2,1,2,1,3.3,0,6,2.7,6,6v5.8c0,7.3,6,13.3,13.3,13.3h4.2c.8,0,1.5.3,2.1.8.6.5.9,1.3.9,2.1v3.1c0,3.2,2.6,5.8,5.8,5.8h11.5c1.3,0,2.3-1,2.3-2.3s-.3-1.1-.7-1.5c-3.1-2.7-5-6.6-5-10.9M65.6,63.2c-2.4,0-4.3-1.9-4.3-4.3s1.9-4.3,4.3-4.3,4.3,1.9,4.3,4.3-1.9,4.3-4.3,4.3M94.9,51.9c-1-9.7-8.8-17.4-18.6-18.3-10.1-.9-19.3,5.5-21.9,15.2,0,.1-6.7,20-6.7,20-.1.4,0,.7.1.8.1.1.3.4.7.4h0c2.8,0,5,2.2,5,5v4.2c0,4.8,3.9,8.7,8.7,8.7s3.3.3,3.9,1.7c0,.2.1,1,.2,1.8.1,1.4,1.3,2.5,2.7,2.5h18c1.5,0,2.8-1.2,2.8-2.7-.1-10,2.7-25,3.6-29.5.2-.9.4-1.7.6-2.5.6-2.4.8-4.9.6-7.4"/>
    </g>
  </g>
</svg>